<svg width="40" height="40" viewBox="0 0 40 40" fill="none" xmlns="http://www.w3.org/2000/svg">
<path d="M20 40C31.0457 40 40 31.0457 40 20C40 8.9543 31.0457 0 20 0C8.9543 0 0 8.9543 0 20C0 31.0457 8.9543 40 20 40Z" fill="#627EEA"/>
<path d="M20.123 7V16.6089L28.2445 20.2379L20.123 7Z" fill="white" fill-opacity="0.602"/>
<path d="M20.1226 7L12 20.2379L20.1226 16.6089V7Z" fill="white"/>
<path d="M20.123 26.4645V32.9936L28.25 21.75L20.123 26.4645Z" fill="white" fill-opacity="0.602"/>
<path d="M20.1226 32.9936V26.4634L12 21.75L20.1226 32.9936Z" fill="white"/>
<path d="M20.123 24.9533L28.2445 20.2377L20.123 16.6108V24.9533Z" fill="white" fill-opacity="0.2"/>
<path d="M12 20.2377L20.1226 24.9533V16.6108L12 20.2377Z" fill="white" fill-opacity="0.602"/>
</svg>
