<?xml version="1.0" standalone="no"?>
<!DOCTYPE svg PUBLIC "-//W3C//DTD SVG 20010904//EN"
 "http://www.w3.org/TR/2001/REC-SVG-20010904/DTD/svg10.dtd">
<svg version="1.0" xmlns="http://www.w3.org/2000/svg"
 width="96.000000pt" height="96.000000pt" viewBox="0 0 96.000000 96.000000"
 preserveAspectRatio="xMidYMid meet">
<metadata>
Created by potrace 1.14, written by Peter Selinger 2001-2017
</metadata>
<g transform="translate(0.000000,96.000000) scale(0.100000,-0.100000)"
fill="#000000" stroke="none">
<path d="M378 818 c-53 -57 -115 -125 -139 -152 -24 -27 -57 -64 -74 -81 -72
-77 -93 -106 -88 -126 5 -16 102 -131 208 -245 5 -6 44 -48 85 -94 103 -113
99 -110 125 -110 21 0 70 43 142 126 19 22 138 153 222 243 82 90 93 67 -148
331 -171 188 -194 210 -216 210 -15 0 -52 -32 -117 -102z"/>
</g>
</svg>
